<svg width="24" height="31" viewBox="0 0 34 41" fill="none"
                        xmlns="http://www.w3.org/2000/svg">
                        <path
                            d="M17 40.8333C19.2916 40.8333 21.1666 38.9583 21.1666 36.6666H12.8333C12.8333 38.9583 14.7083 40.8333 17 40.8333ZM29.5 28.3333V17.9166C29.5 11.5208 26.1041 6.16665 20.125 4.74998V3.33331C20.125 1.60415 18.7291 0.208313 17 0.208313C15.2708 0.208313 13.875 1.60415 13.875 3.33331V4.74998C7.91665 6.16665 4.49998 11.5 4.49998 17.9166V28.3333L0.333313 32.5V34.5833H33.6666V32.5L29.5 28.3333ZM25.3333 30.4166H8.66665V17.9166C8.66665 12.75 11.8125 8.54165 17 8.54165C22.1875 8.54165 25.3333 12.75 25.3333 17.9166V30.4166Z"
                            fill="#E5E5E5" />
                    </svg>