<svg width="30" height="30" viewBox="0 0 42 42" fill="none"
                        xmlns="http://www.w3.org/2000/svg">
                        <path
                            d="M21 18.7084C19.7292 18.7084 18.7084 19.7292 18.7084 21C18.7084 22.2709 19.7292 23.2917 21 23.2917C22.2709 23.2917 23.2917 22.2709 23.2917 21C23.2917 19.7292 22.2709 18.7084 21 18.7084ZM21 0.166687C9.50002 0.166687 0.166687 9.50002 0.166687 21C0.166687 32.5 9.50002 41.8334 21 41.8334C32.5 41.8334 41.8334 32.5 41.8334 21C41.8334 9.50002 32.5 0.166687 21 0.166687ZM25.5625 25.5625L8.50002 33.5L16.4375 16.4375L33.5 8.50002L25.5625 25.5625Z"
                            fill="#E6E6E6" />
                    </svg>